<svg width="290" height="290" viewBox="0 0 290 290" fill="none" xmlns="http://www.w3.org/2000/svg">
<circle cx="145" cy="145" r="140" stroke="#334292" stroke-width="10"/>
<path d="M147 72.5093C145.457 73.3628 143.441 74.4342 141.552 75.4329C140.554 75.9596 139.337 76.6133 138.829 76.8857C137.63 77.5394 135.505 78.6835 133.726 79.6096C132.945 80.0273 131.801 80.6447 131.202 80.9534C130.602 81.2803 129.222 82.0248 128.115 82.6059C127.025 83.187 125.627 83.9497 125.027 84.2584C124.428 84.5853 123.538 85.0574 123.03 85.3298C121.359 86.2014 116.311 88.889 115.312 89.452C114.858 89.7062 113.442 90.4689 112.134 91.1408C110.845 91.8309 109.483 92.5391 109.138 92.7388C108.793 92.9386 107.722 93.5015 106.777 93.9918C105.833 94.5003 104.725 95.0995 104.326 95.3175C103.926 95.5354 102.71 96.1891 101.602 96.7702C100.512 97.3513 99.0777 98.114 98.4239 98.459C97.7702 98.8041 96.5535 99.4578 95.7 99.8936C94.8465 100.348 93.6662 100.983 93.0669 101.31C91.1965 102.345 89.8709 103.053 87.8915 104.088C86.8382 104.633 85.1313 105.541 84.078 106.122C83.0248 106.703 81.3178 107.611 80.2645 108.156C77.6133 109.554 75.9063 110.462 75.2707 110.844C74.9802 111.025 73.5819 111.752 72.1836 112.478C70.7853 113.204 69.2781 114.003 68.8423 114.258C68.4246 114.512 67.3351 115.093 66.4634 115.547C62.9223 117.399 62.1778 117.799 61.9054 118.035C61.7601 118.18 61.5059 118.289 61.3606 118.289C61.2154 118.289 61.0156 118.362 60.9066 118.471C60.8158 118.561 59.9442 119.052 58.9817 119.542C58.0193 120.032 56.7663 120.704 56.1852 121.031C54.8596 121.776 52.9892 122.756 51.2095 123.664C50.465 124.046 49.3573 124.645 48.758 124.99C47.6321 125.662 45.3985 126.842 43.0378 128.023C42.2933 128.404 41.349 128.912 40.9495 129.167C40.55 129.403 39.0427 130.22 37.59 130.964C36.1372 131.691 34.2668 132.708 33.4133 133.18C32.5598 133.67 30.5986 134.723 29.0551 135.504C27.5115 136.303 26.1677 137.102 26.0588 137.247C25.8409 137.593 26.2041 137.919 27.566 138.646C28.02 138.882 28.7464 139.299 29.164 139.572C29.5817 139.862 29.963 140.08 30.0175 140.08C30.0902 140.08 30.9437 140.571 31.9243 141.17C32.923 141.769 33.7765 142.259 33.831 142.259C33.8855 142.259 34.285 142.496 34.7208 142.786C35.1566 143.058 35.992 143.567 36.5912 143.894C37.1905 144.221 37.7716 144.566 37.8987 144.657C38.0258 144.747 38.5343 145.056 39.0246 145.31C39.533 145.583 40.4955 146.146 41.1674 146.545C42.4749 147.344 43.3828 147.871 44.6177 148.524C45.0353 148.761 45.6164 149.106 45.907 149.323C46.1975 149.523 46.6334 149.777 46.8694 149.886C47.1055 149.977 47.4687 150.177 47.6685 150.286C48.4493 150.794 49.5207 151.43 50.12 151.757C51.7906 152.665 52.4262 153.046 52.8802 153.355C53.1344 153.555 53.3887 153.7 53.4431 153.7C53.5339 153.7 57.8922 156.224 58.4733 156.605C58.6186 156.714 58.8728 156.841 59.0181 156.914C59.1633 156.987 60.2711 157.622 61.4696 158.331C62.6681 159.039 63.7758 159.692 63.9211 159.747C64.0664 159.82 64.4477 160.038 64.7383 160.237C65.047 160.419 65.7007 160.782 66.191 161.054C66.6995 161.309 67.5893 161.835 68.1886 162.217C69.2418 162.889 70.3314 163.506 71.8204 164.305C72.801 164.85 74.1448 165.74 74.3083 165.957C74.3809 166.048 74.4535 170.17 74.4535 175.11C74.4535 182.918 74.4172 184.171 74.163 184.916C73.9088 185.606 73.9088 185.878 74.0722 186.514C74.508 188.13 76.5419 189.982 79.2658 191.29C79.974 191.617 80.7004 191.962 80.882 192.071C81.0817 192.161 81.4449 192.307 81.6991 192.398C81.9534 192.47 82.9885 192.833 83.9872 193.197C84.986 193.56 86.0937 193.923 86.4387 194.014C86.7838 194.105 87.7281 194.341 88.5271 194.559C89.3261 194.776 90.3067 195.031 90.7062 195.103C91.1057 195.176 91.7958 195.321 92.2497 195.448C94.4833 196.066 96.5898 196.502 98.4239 196.738C99.0777 196.81 99.7314 196.919 99.8767 196.992C100.022 197.046 100.766 197.173 101.511 197.282C102.256 197.373 103.291 197.537 103.781 197.627C105.161 197.882 108.393 198.318 111.281 198.644C112.697 198.79 114.985 199.044 116.365 199.189C119.089 199.48 122.975 199.752 128.296 200.024C130.203 200.115 132.89 200.261 134.289 200.37C138.356 200.66 158.023 200.606 163.435 200.279C174.712 199.625 177.454 199.425 179.415 199.189C180.559 199.044 181.83 198.917 182.23 198.917C182.629 198.917 183.809 198.808 184.863 198.663C185.916 198.517 187.514 198.299 188.404 198.19C189.312 198.081 190.728 197.882 191.582 197.736C192.435 197.591 193.743 197.391 194.487 197.282C195.232 197.173 195.976 197.046 196.121 196.992C196.267 196.919 196.92 196.81 197.574 196.738C198.936 196.556 200.498 196.265 201.987 195.902C202.55 195.757 203.494 195.539 204.075 195.394C204.638 195.249 205.528 195.031 206.018 194.922C206.527 194.795 207.217 194.631 207.562 194.559C208.906 194.268 210.703 193.687 214.099 192.47C214.553 192.307 215.824 191.726 216.914 191.181C220.891 189.201 222.725 186.804 221.835 184.68C221.581 184.062 221.545 182.846 221.545 175.055C221.545 170.152 221.617 166.048 221.69 165.939C221.853 165.703 224.886 163.742 227.864 161.962C228.027 161.853 228.518 161.545 228.935 161.272C229.371 161 229.753 160.782 229.807 160.782C229.862 160.782 230.134 160.619 230.406 160.437C231.042 159.983 237.452 156.024 238.269 155.57C238.923 155.225 239.867 154.608 241.465 153.555C242.01 153.21 242.537 152.974 242.7 153.046C242.936 153.137 242.973 154.39 242.973 163.179C242.973 168.7 242.9 173.33 242.809 173.457C242.737 173.603 242.373 173.875 242.028 174.093C241.284 174.565 240.231 175.709 239.813 176.526C239.649 176.853 239.395 177.652 239.25 178.306C238.996 179.395 238.996 179.613 239.25 180.63C239.777 182.737 241.702 184.916 243.427 185.388C243.735 185.479 244.716 185.551 245.606 185.551C247.022 185.57 247.367 185.515 248.239 185.079C250.799 183.826 252.143 181.284 251.689 178.506C251.362 176.472 250.418 174.965 248.911 174.057C248.548 173.82 248.148 173.494 248.057 173.312C247.948 173.094 247.876 168.718 247.876 161.545C247.876 148.543 247.694 149.941 249.565 148.96C250.073 148.688 250.926 148.252 251.417 147.98C251.925 147.725 252.652 147.326 253.051 147.09C254.94 146.018 257.373 144.675 258.753 143.948C259.607 143.494 260.587 142.95 260.932 142.732C261.295 142.514 261.713 142.259 261.858 142.205C262.004 142.132 262.458 141.878 262.857 141.66C263.257 141.424 264.401 140.807 265.4 140.28C266.398 139.735 267.506 139.136 267.851 138.918C268.196 138.7 268.795 138.373 269.195 138.174C269.994 137.774 270.194 137.429 269.83 137.084C269.685 136.957 268.105 136.103 266.307 135.177C264.51 134.251 262.748 133.307 262.367 133.071C262.004 132.835 260.369 131.963 258.735 131.128C257.119 130.292 255.448 129.403 255.049 129.167C254.649 128.912 253.705 128.404 252.96 128.023C250.6 126.842 248.366 125.662 247.24 124.99C246.641 124.645 245.533 124.046 244.789 123.664C243.009 122.756 241.139 121.776 239.813 121.031C239.232 120.704 237.979 120.032 237.016 119.542C236.054 119.052 235.182 118.561 235.091 118.471C234.983 118.362 234.783 118.289 234.637 118.289C234.492 118.289 234.238 118.18 234.093 118.035C233.82 117.799 233.076 117.399 229.535 115.547C228.663 115.093 227.574 114.512 227.156 114.258C226.72 114.003 225.213 113.204 223.815 112.478C222.416 111.752 221.036 111.025 220.727 110.844C220.092 110.462 218.385 109.554 215.734 108.156C214.68 107.611 212.973 106.703 211.92 106.122C210.867 105.541 209.16 104.633 208.107 104.088C206.127 103.053 204.802 102.345 202.931 101.31C202.332 100.983 201.152 100.348 200.298 99.8936C199.445 99.4578 198.228 98.8041 197.574 98.459C196.92 98.114 195.504 97.3513 194.396 96.7702C193.307 96.1891 192.072 95.5354 191.672 95.3175C191.273 95.0995 190.165 94.5003 189.221 93.9918C188.277 93.5015 187.205 92.9386 186.86 92.7388C186.515 92.5391 185.171 91.8309 183.864 91.1408C182.575 90.4689 181.14 89.7062 180.686 89.452C179.687 88.889 174.639 86.2014 172.968 85.3298C172.478 85.0574 171.57 84.5853 170.971 84.2584C170.371 83.9497 168.991 83.187 167.884 82.6059C166.794 82.0248 165.396 81.2803 164.796 80.9534C164.197 80.6447 163.053 80.0273 162.272 79.6096C160.493 78.6835 158.368 77.5394 157.17 76.8857C156.679 76.6133 155.444 75.9596 154.446 75.4329C152.702 74.525 151.794 74.0347 149.179 72.6182C148.544 72.2732 147.999 71.9826 147.963 72.0008C147.926 72.0008 147.509 72.2187 147 72.5093ZM159.803 126.098C160.347 126.188 161.909 126.316 163.253 126.37C167.248 126.552 176.146 127.659 179.415 128.386C180.069 128.531 180.795 128.64 181.031 128.64C181.467 128.64 183.355 129.021 184.953 129.439C185.462 129.584 186.515 129.82 187.314 130.002C188.113 130.165 189.021 130.365 189.312 130.456C190.728 130.837 192.635 131.436 193.18 131.654C193.506 131.8 193.942 131.909 194.142 131.909C194.36 131.909 194.778 132.018 195.086 132.145C195.413 132.29 196.121 132.526 196.666 132.708C197.792 133.071 201.678 134.614 203.204 135.304C209.541 138.174 215.134 141.824 218.548 145.347L220.001 146.854L220.056 149.178C220.128 151.957 220.056 152.029 218.548 150.649C218.022 150.177 217.477 149.705 217.35 149.614C214.971 147.798 214.008 147.126 213.1 146.618C212.501 146.291 211.448 145.673 210.74 145.256C210.05 144.838 209.341 144.439 209.196 144.384C209.051 144.311 208.797 144.184 208.651 144.094C208.216 143.821 205.946 142.804 205.764 142.804C205.673 142.804 204.983 142.514 204.239 142.169C202.477 141.37 199.917 140.371 198.355 139.881C197.665 139.663 196.83 139.39 196.485 139.263C195.776 139.009 194.614 138.682 193.488 138.446C193.089 138.355 192.308 138.155 191.763 137.992C191.218 137.81 190.274 137.574 189.675 137.447C189.076 137.32 187.605 136.993 186.406 136.739C182.792 135.922 181.703 135.722 181.231 135.722C180.995 135.722 180.177 135.613 179.415 135.468C177.944 135.177 175.511 134.869 173.059 134.633C172.206 134.542 170.953 134.396 170.244 134.288C169.554 134.179 168.356 134.088 167.611 134.088C166.867 134.088 165.977 134.015 165.65 133.924C165.323 133.815 161.219 133.597 156.552 133.434C148.58 133.143 147.545 133.143 139.519 133.434C134.815 133.597 130.693 133.815 130.348 133.906C130.021 134.015 129.131 134.088 128.387 134.088C127.642 134.088 126.462 134.179 125.754 134.288C125.064 134.396 123.793 134.542 122.939 134.633C120.488 134.869 118.054 135.177 116.583 135.468C115.821 135.613 115.003 135.722 114.767 135.722C114.513 135.722 113.696 135.849 112.951 136.013C112.207 136.158 111.027 136.412 110.318 136.557C108.266 136.975 105.47 137.647 103.599 138.174C103.109 138.319 102.492 138.464 102.237 138.519C101.493 138.664 100.185 139.027 99.5135 139.263C99.1685 139.39 98.3331 139.663 97.6431 139.881C96.0814 140.371 93.5209 141.37 91.7594 142.169C91.0149 142.514 90.3248 142.804 90.2341 142.804C90.1433 142.804 89.5622 143.04 88.9447 143.331C88.3092 143.621 87.6736 143.894 87.5283 143.966C87.383 144.021 87.1288 144.148 86.9835 144.257C86.4569 144.584 83.9872 146.018 82.8977 146.618C82.2984 146.945 81.1725 147.725 80.3735 148.325C79.5927 148.942 78.7392 149.596 78.4668 149.777C78.2125 149.977 77.6133 150.486 77.123 150.922C76.6508 151.357 76.1787 151.666 76.0879 151.612C75.9789 151.539 75.9063 150.576 75.9063 149.36C75.9063 146.963 75.8881 147.017 77.5225 145.292C78.5939 144.148 83.3698 140.316 84.078 140.008C84.2233 139.953 84.9678 139.499 85.7124 139.009C88.4544 137.193 95.5911 133.906 99.3319 132.708C99.8767 132.526 100.585 132.29 100.912 132.145C101.22 132.018 101.638 131.909 101.856 131.909C102.056 131.909 102.492 131.8 102.819 131.654C103.363 131.436 105.27 130.837 106.686 130.456C106.995 130.365 107.885 130.165 108.684 130.002C109.483 129.82 110.554 129.584 111.045 129.439C112.606 129.039 113.859 128.785 114.931 128.64C115.494 128.567 116.402 128.422 116.947 128.313C121.032 127.532 127.842 126.697 133.562 126.261C139.264 125.825 157.551 125.716 159.803 126.098ZM164.796 176.853C166.903 176.998 169.863 177.125 171.388 177.125C172.914 177.125 174.512 177.198 174.929 177.307C175.347 177.398 177.09 177.561 178.779 177.67C181.993 177.852 186.315 178.251 188.676 178.56C189.421 178.669 191.109 178.869 192.399 179.032C194.741 179.305 196.866 179.631 199.663 180.122C200.462 180.267 201.406 180.412 201.751 180.467C202.477 180.576 204.82 181.139 207.562 181.901C209.105 182.337 209.741 182.555 211.012 183.173C213.191 184.208 213.899 185.025 213.645 186.187C213.337 187.64 209.959 189.238 204.656 190.454C204.003 190.618 202.931 190.854 202.277 191.017C201.624 191.163 200.861 191.29 200.589 191.29C200.316 191.29 199.59 191.399 198.972 191.544C196.684 192.071 192.816 192.634 189.402 192.942C188.258 193.033 187.078 193.197 186.788 193.287C186.497 193.396 185.68 193.469 184.972 193.469C184.263 193.469 183.156 193.56 182.502 193.669C181.848 193.778 180.014 193.941 178.416 194.014C176.818 194.105 174.076 194.25 172.333 194.359C157.224 195.249 138.774 195.249 123.665 194.359C121.922 194.25 119.18 194.105 117.582 194.014C115.984 193.941 114.15 193.778 113.496 193.669C112.842 193.56 111.735 193.469 111.027 193.469C110.318 193.469 109.501 193.396 109.211 193.287C108.92 193.197 107.74 193.033 106.596 192.942C103.182 192.634 99.3137 192.071 97.0257 191.544C96.4082 191.399 95.6819 191.29 95.4095 191.29C95.1371 191.29 94.3744 191.163 93.7207 191.017C93.0669 190.854 91.9592 190.6 91.251 190.436C90.5609 190.291 89.653 190.037 89.2534 189.91C88.8358 189.764 88.3818 189.655 88.2184 189.655C87.7281 189.655 84.8226 188.421 83.8056 187.749C82.6979 187.041 82.135 186.169 82.3347 185.424C82.6253 184.226 85.0223 182.846 88.4363 181.901C91.2328 181.139 93.5209 180.558 94.2473 180.467C94.5923 180.412 95.5366 180.267 96.3356 180.122C99.1322 179.631 101.257 179.305 103.599 179.032C104.907 178.869 106.578 178.669 107.322 178.56C109.683 178.251 114.005 177.852 117.219 177.67C118.926 177.561 120.651 177.398 121.069 177.307C121.486 177.198 123.157 177.125 124.791 177.107C126.426 177.107 129.186 176.998 130.929 176.871C135.705 176.508 159.803 176.508 164.796 176.853Z" fill="#334292"/>
<path d="M250.672 187.458C250.364 187.531 250.019 187.658 249.892 187.731C249.438 188.021 246.278 188.566 245.043 188.566C243.79 188.566 241.992 188.13 241.193 187.64C240.521 187.222 240.285 187.531 240.176 188.965C240.122 189.692 239.958 191.962 239.795 194.014C239.65 196.066 239.395 199.28 239.25 201.187C238.796 207.161 238.596 209.994 238.415 213.172C238.324 214.861 238.179 216.713 238.07 217.258C237.924 218.093 237.816 221.162 237.87 222.379C237.906 222.942 238.142 222.742 239.305 221.18C241.193 218.62 243.881 216.386 246.151 215.514C247.24 215.115 250.237 215.042 250.945 215.424C251.181 215.551 251.435 215.587 251.526 215.496C251.707 215.315 251.762 187.749 251.598 187.458C251.471 187.277 251.471 187.277 250.672 187.458Z" fill="#334292"/>
</svg>
