<svg width="290" height="290" viewBox="0 0 290 290" fill="none" xmlns="http://www.w3.org/2000/svg">
<circle cx="145" cy="145" r="140" stroke="#F98F53" stroke-width="10"/>
<path d="M99.7818 68.5815L52.3817 87.4779L52.1909 94.0312L52 100.521H58.426C63.6432 100.521 64.7885 100.712 64.7885 101.475C64.7885 101.984 65.6156 103.32 66.6336 104.466L68.4787 106.565L146.673 106.756C224.167 106.883 224.803 106.883 226.903 105.611C228.048 104.911 229.321 103.448 229.703 102.43L230.339 100.521H236.638H243L242.809 94.0948L242.618 87.6687L195.854 68.9632C170.15 58.6561 148.645 50.1304 148.136 50.0032C147.627 49.8123 125.868 58.2107 99.7818 68.5815Z" fill="#F98F53"/>
<path d="M77.3862 151.229L77.1953 189.277L72.5507 189.595C68.4152 189.849 67.6517 190.104 66.3156 191.694C65.0431 193.221 64.7886 194.176 64.7886 197.93V202.32L147.373 202.192L229.893 202.001L230.084 198.566C230.466 192.012 228.112 189.595 221.304 189.595H217.487V151.42V113.246H204.762H192.037L191.91 151.229L191.719 189.277L185.547 189.467L179.312 189.658V151.42V113.246H166.587H153.863L153.735 151.229L153.544 189.277L147.373 189.467L141.138 189.658V151.42V113.246H128.413H115.688L115.561 151.229L115.37 189.277L109.198 189.467L102.963 189.658V151.42V113.246H90.2383H77.5134L77.3862 151.229Z" fill="#F98F53"/>
<path d="M57.1537 208.682C55.9448 209 54.2906 209.955 53.5271 210.909C52.191 212.436 52.0637 213.199 52.0637 219.88V227.133H147.5H242.936V220.453C242.936 213.263 242.364 211.227 239.819 209.509C238.228 208.428 233.011 208.364 148.773 208.237C99.591 208.237 58.3625 208.428 57.1537 208.682Z" fill="#F98F53"/>
</svg>
